<svg width="438" height="438" viewBox="0 0 438 438" fill="none" xmlns="http://www.w3.org/2000/svg">
<g clip-path="url(#clip0_32_11)">
<path d="M219 438C339.95 438 438 339.951 438 219C438 98.0501 339.95 0.000488281 219 0.000488281C98.0496 0.000488281 0 98.0501 0 219C0 339.951 98.0496 438 219 438Z" fill="url(#paint0_linear_32_11)"/>
<path d="M156.053 323.899C142.677 322.414 130.042 318.463 118.612 312.517C125.963 322.951 135.639 331.996 147.418 338.794L147.41 338.809C159.195 345.61 171.878 349.462 184.604 350.602C173.757 343.684 164.03 334.729 156.053 323.899ZM267.056 126.541C255.408 126.541 244.272 128.736 234.04 132.734C237.501 135.437 240.791 138.349 243.893 141.45C247.67 145.227 251.167 149.288 254.35 153.593C259.659 154.196 264.911 155.192 270.06 156.572C274.307 157.71 278.484 159.109 282.566 160.759C280.919 149.885 277.257 139.135 271.434 129.04L271.419 129.049C270.938 128.217 270.447 127.398 269.945 126.586C268.986 126.558 268.023 126.541 267.056 126.541ZM217.55 141.22C212.251 144.674 207.335 148.667 202.88 153.122L202.649 153.357C207.629 153.815 212.603 154.624 217.536 155.798C222.476 154.622 227.46 153.811 232.448 153.353L232.219 153.122C227.765 148.667 222.849 144.675 217.55 141.22ZM191.208 141.45C194.309 138.349 197.6 135.438 201.06 132.734C190.828 128.735 179.692 126.541 168.045 126.541C167.071 126.541 166.102 126.558 165.136 126.588C164.642 127.387 164.155 128.196 163.683 129.016C157.851 139.116 154.184 149.877 152.536 160.759C156.619 159.108 160.796 157.708 165.043 156.571C170.192 155.191 175.444 154.195 180.752 153.592C183.933 149.287 187.43 145.227 191.208 141.45ZM217.55 122.117C229.619 115.827 243.033 111.763 257.246 110.475C246.09 99.2211 232.343 91.2915 217.547 87.1017C202.739 91.2966 188.987 99.2253 177.834 110.473C192.056 111.761 205.476 115.824 217.55 122.117ZM164.255 186.577C165.709 181.704 167.502 176.976 169.603 172.421L169.298 172.501C163.211 174.133 157.294 176.392 151.652 179.251C151.997 185.574 152.998 191.833 154.63 197.925L154.716 198.237C157.597 194.158 160.779 190.258 164.255 186.577ZM202.655 281.245L202.881 281.474C207.336 285.929 212.252 289.921 217.551 293.377C222.85 289.921 227.767 285.929 232.22 281.474L232.447 281.245C227.465 280.786 222.489 279.976 217.554 278.802C212.617 279.976 207.638 280.787 202.655 281.245ZM191.208 293.146C187.432 289.369 183.937 285.311 180.756 281.008C175.447 280.407 170.194 279.411 165.045 278.032C160.799 276.894 156.624 275.494 152.544 273.845C154.194 284.715 157.858 295.464 163.685 305.554L163.702 305.614C164.168 306.424 164.646 307.219 165.134 308.008C166.101 308.038 167.071 308.056 168.045 308.056C179.693 308.056 190.828 305.86 201.06 301.861C197.6 299.157 194.309 296.247 191.208 293.146ZM169.606 262.181C167.505 257.628 165.714 252.901 164.258 248.032C160.782 244.349 157.599 240.449 154.716 236.369L154.631 236.677C152.999 242.768 151.998 249.027 151.655 255.349C157.298 258.209 163.214 260.471 169.3 262.1L169.606 262.181ZM234.04 301.861C244.272 305.86 255.408 308.056 267.056 308.056C268.031 308.056 269 308.038 269.967 308.008C270.461 307.21 270.945 306.403 271.417 305.584H271.418C277.248 295.483 280.916 284.724 282.563 273.842C278.481 275.492 274.304 276.892 270.056 278.03C264.907 279.409 259.655 280.405 254.344 281.007C251.164 285.311 247.667 289.369 243.892 293.146C240.791 296.247 237.501 299.157 234.04 301.861ZM257.269 324.124C246.113 335.377 232.359 343.306 217.547 347.5C202.738 343.306 188.984 335.374 177.83 324.124C192.053 322.837 205.476 318.772 217.55 312.478C229.625 318.772 243.047 322.837 257.269 324.124ZM290.18 305.083C305.523 301.051 319.278 293.106 330.315 282.376C334.08 267.457 334.083 251.582 329.913 236.297C321.687 247.976 311.454 257.573 299.963 264.887C299.372 278.477 296.177 292.125 290.18 305.083ZM316.491 312.514C305.061 318.463 292.425 322.414 279.047 323.899C271.069 334.729 261.34 343.687 250.492 350.602C263.22 349.465 275.905 345.61 287.692 338.812L287.684 338.797C299.463 331.996 309.141 322.951 316.491 312.514ZM349.467 255.367C354.822 243.79 357.813 230.893 357.813 217.298C357.813 203.701 354.822 190.804 349.464 179.225C348.894 192.079 345.996 204.979 340.602 217.298C345.996 229.616 348.894 242.515 349.467 255.367ZM330.309 152.214C319.275 141.487 305.52 133.544 290.179 129.515C296.178 142.474 299.373 156.122 299.964 169.717C311.454 177.029 321.687 186.624 329.913 198.303C334.083 183.013 334.077 167.136 330.309 152.214ZM279.068 110.697C271.093 99.8718 261.364 90.9177 250.511 84.0015C263.241 85.1427 275.927 88.9995 287.714 95.805C299.483 102.6 309.153 111.643 316.497 122.083C305.073 116.138 292.442 112.188 279.068 110.697ZM138.7 202.181C137.563 197.935 136.687 193.62 136.076 189.262C127.481 196.124 120.002 204.673 114.176 214.763C113.691 215.604 113.222 216.45 112.766 217.299C113.217 218.142 113.683 218.981 114.164 219.815L114.178 219.807C120.008 229.906 127.487 238.46 136.079 245.327C136.689 240.973 137.565 236.661 138.702 232.421C140.084 227.263 141.85 222.207 143.987 217.302C141.849 212.396 140.082 207.34 138.7 202.181ZM135.137 169.723C123.653 177.037 113.423 186.637 105.194 198.323C101.02 183.028 101.022 167.142 104.793 152.212C115.827 141.487 129.581 133.544 144.922 129.515C138.921 142.475 135.727 156.127 135.137 169.723ZM265.496 262.179L265.801 262.099C271.887 260.47 277.804 258.205 283.446 255.345C283.103 249.025 282.101 242.766 280.47 236.675L280.383 236.357C277.503 240.43 274.323 244.325 270.85 248.003C269.394 252.884 267.6 257.618 265.496 262.179ZM299.023 245.326C298.412 240.971 297.537 236.66 296.401 232.42C295.018 227.261 293.252 222.206 291.117 217.301C293.253 212.394 295.021 207.34 296.402 202.183C297.539 197.942 298.414 193.631 299.024 189.277C307.617 196.144 315.096 204.698 320.925 214.796L320.94 214.788C321.42 215.62 321.885 216.458 322.335 217.299C321.885 218.141 321.42 218.98 320.94 219.814L320.925 219.805C315.093 229.904 307.614 238.459 299.023 245.326ZM156.056 110.695C142.676 112.183 130.038 116.133 118.605 122.082C125.951 111.644 135.62 102.602 147.387 95.8086C159.179 89.0022 171.868 85.1436 184.601 84.0039C173.756 90.9177 164.032 99.8709 156.056 110.695ZM135.135 264.884C135.723 278.477 138.914 292.122 144.905 305.077C129.569 301.045 115.819 293.103 104.789 282.38C101.023 267.459 101.02 251.585 105.188 236.298C113.414 247.978 123.645 257.573 135.135 264.884ZM280.387 198.236L280.472 197.927C282.105 191.836 283.105 185.578 283.45 179.257C277.807 176.395 271.89 174.132 265.803 172.501L265.498 172.421C267.598 176.975 269.391 181.7 270.844 186.571C274.321 190.255 277.505 194.155 280.387 198.236ZM94.4979 217.299C89.103 204.979 86.205 192.077 85.6359 179.224C80.277 190.802 77.2866 203.7 77.2866 217.298C77.2866 230.893 80.277 243.791 85.635 255.369C86.2056 242.516 89.103 229.618 94.4979 217.299Z" fill="white"/>
</g>
<defs>
<linearGradient id="paint0_linear_32_11" x1="0" y1="0.000503809" x2="0" y2="438" gradientUnits="userSpaceOnUse">
<stop stop-color="#FF8C00"/>
<stop offset="0.0001" stop-color="#FF8C00"/>
<stop offset="1" stop-color="#FF0080"/>
</linearGradient>
<clipPath id="clip0_32_11">
<rect width="438" height="438" fill="white"/>
</clipPath>
</defs>
</svg>
