<svg width="142" height="24" viewBox="0 0 142 24" fill="#fff" xmlns="http://www.w3.org/2000/svg">
  <path d="M38.8042 18.8715C37.5611 18.8715 36.4597 18.6513 35.4999 18.2107C34.54 17.7701 33.7848 17.125 33.234 16.2753C32.699 15.4099 32.4315 14.3635 32.4315 13.1362V12.5461H34.957V13.1362C34.957 14.3005 35.3032 15.1738 35.9955 15.756C36.7036 16.3382 37.6398 16.6293 38.8042 16.6293C39.9843 16.6293 40.8733 16.3854 41.4713 15.8976C42.0692 15.3941 42.3682 14.749 42.3682 13.9622C42.3682 13.443 42.2266 13.0181 41.9433 12.6877C41.6601 12.3573 41.2589 12.0977 40.7396 11.9088C40.2203 11.7043 39.5988 11.5155 38.875 11.3424L38.0017 11.13C36.9475 10.8782 36.027 10.5714 35.2402 10.2095C34.4692 9.83182 33.8713 9.33617 33.4465 8.72251C33.0216 8.10885 32.8092 7.3221 32.8092 6.36227C32.8092 5.3867 33.0452 4.55275 33.5173 3.86041C34.005 3.16807 34.6738 2.63309 35.5235 2.25545C36.3731 1.87781 37.3723 1.68899 38.521 1.68899C39.6696 1.68899 40.6924 1.88567 41.5893 2.27905C42.5019 2.67242 43.2179 3.25462 43.7371 4.02563C44.2564 4.79664 44.516 5.76434 44.516 6.92872V7.77841H41.9905V6.92872C41.9905 6.22065 41.841 5.64633 41.5421 5.20575C41.2589 4.76517 40.8576 4.4426 40.3384 4.23805C39.8191 4.0335 39.2133 3.93122 38.521 3.93122C37.5139 3.93122 36.7272 4.14364 36.1607 4.56848C35.61 4.97759 35.3346 5.55192 35.3346 6.29146C35.3346 6.79498 35.4527 7.21195 35.6887 7.54239C35.9404 7.85709 36.3023 8.11671 36.7744 8.32127C37.2464 8.52582 37.8365 8.70677 38.5446 8.86412L39.4179 9.07654C40.4878 9.31257 41.4319 9.6194 42.2502 9.99704C43.0684 10.3589 43.7135 10.8546 44.1856 11.484C44.6576 12.1134 44.8936 12.9237 44.8936 13.915C44.8936 14.9063 44.6419 15.7718 44.1383 16.5113C43.6506 17.2508 42.9504 17.833 42.0377 18.2579C41.1251 18.667 40.0473 18.8715 38.8042 18.8715Z"/>
  <path d="M47.6404 24V6.90512H50.0242V8.58089H50.4018C50.7008 8.06164 51.1493 7.59746 51.7472 7.18835C52.3608 6.77924 53.2341 6.57469 54.367 6.57469C55.3426 6.57469 56.2316 6.81071 57.0341 7.28276C57.8523 7.75481 58.5053 8.43928 58.9931 9.33617C59.4966 10.2173 59.7484 11.2873 59.7484 12.5461V12.9001C59.7484 14.1589 59.5045 15.2368 59.0167 16.1337C58.5289 17.0148 57.8759 17.6914 57.0577 18.1635C56.2395 18.6355 55.3426 18.8715 54.367 18.8715C53.6118 18.8715 52.9745 18.7771 52.4552 18.5883C51.936 18.3995 51.519 18.1635 51.2043 17.8802C50.8896 17.5813 50.6379 17.2745 50.449 16.9598H50.0714V22.5724L47.6404 24ZM53.659 16.7473C54.7289 16.7473 55.6022 16.409 56.2788 15.7324C56.9554 15.0558 57.2937 14.0881 57.2937 12.8293V12.6169C57.2937 11.3738 56.9476 10.414 56.2552 9.73741C55.5786 9.06081 54.7132 8.72251 53.659 8.72251C52.6205 8.72251 51.755 9.06081 51.0627 9.73741C50.3861 10.414 50.0478 11.3738 50.0478 12.6169V12.8293C50.0478 14.0881 50.3861 15.0558 51.0627 15.7324C51.755 16.409 52.6205 16.7473 53.659 16.7473Z"/>
  <path d="M68.0948 18.8715C66.9147 18.8715 65.884 18.6277 65.0029 18.1399C64.1217 17.6364 63.4294 16.9361 62.9259 16.0393C62.4381 15.1266 62.1942 14.0724 62.1942 12.8765V12.5933C62.1942 11.3817 62.4381 10.3275 62.9259 9.43058C63.4137 8.51795 64.0903 7.81775 64.9557 7.32997C65.8368 6.82645 66.8517 6.57469 68.0004 6.57469C69.1176 6.57469 70.0931 6.82645 70.9271 7.32997C71.7768 7.81775 72.4376 8.50222 72.9097 9.38338C73.3817 10.2645 73.6178 11.2952 73.6178 12.4753V13.3958H64.6724C64.7039 14.4186 65.0422 15.2368 65.6873 15.8504C66.3482 16.4484 67.1664 16.7473 68.142 16.7473C69.0546 16.7473 69.7391 16.5428 70.1954 16.1337C70.6675 15.7246 71.0294 15.2525 71.2811 14.7175L73.2873 15.756C73.067 16.1966 72.7445 16.6608 72.3196 17.1486C71.9105 17.6364 71.3677 18.0455 70.6911 18.3759C70.0145 18.7063 69.149 18.8715 68.0948 18.8715ZM64.696 11.5312H71.1395C71.0766 10.65 70.7619 9.96557 70.1954 9.47779C69.629 8.97427 68.8894 8.72251 67.9768 8.72251C67.0641 8.72251 66.3167 8.97427 65.7346 9.47779C65.1681 9.96557 64.8219 10.65 64.696 11.5312Z"/>
  <path d="M81.949 18.8715C80.8319 18.8715 79.817 18.6355 78.9043 18.1635C78.0074 17.6914 77.2915 17.007 76.7565 16.1101C76.2373 15.2132 75.9776 14.1353 75.9776 12.8765V12.5697C75.9776 11.3109 76.2373 10.2409 76.7565 9.35977C77.2915 8.46288 78.0074 7.77841 78.9043 7.30636C79.817 6.81858 80.8319 6.57469 81.949 6.57469C83.0662 6.57469 84.0182 6.77924 84.8049 7.18835C85.5917 7.59746 86.2211 8.14032 86.6931 8.81692C87.1809 9.49352 87.4956 10.2409 87.6372 11.0591L85.277 11.5548C85.1983 11.0355 85.0331 10.5635 84.7813 10.1387C84.5296 9.71381 84.1755 9.37551 83.7192 9.12375C83.2629 8.87199 82.6886 8.74611 81.9963 8.74611C81.3196 8.74611 80.706 8.90346 80.1553 9.21816C79.6203 9.51712 79.1954 9.9577 78.8807 10.5399C78.566 11.1064 78.4087 11.7987 78.4087 12.6169V12.8293C78.4087 13.6475 78.566 14.3478 78.8807 14.9299C79.1954 15.5121 79.6203 15.9527 80.1553 16.2517C80.706 16.5506 81.3196 16.7001 81.9963 16.7001C83.019 16.7001 83.7979 16.4405 84.3329 15.9212C84.8679 15.3863 85.2062 14.7097 85.3478 13.8914L87.708 14.4343C87.5192 15.2368 87.1809 15.9763 86.6931 16.6529C86.2211 17.3295 85.5917 17.8724 84.8049 18.2815C84.0182 18.6749 83.0662 18.8715 81.949 18.8715Z"/>
  <path d="M94.4404 18.5411C93.7324 18.5411 93.1659 18.3287 92.7411 17.9038C92.3319 17.479 92.1274 16.9125 92.1274 16.2045V8.95853H88.9175V6.90512H92.1274V3.72135L94.5584 2.31953V6.90512H98.028V8.95853H94.5584V15.7796C94.5584 16.2517 94.7787 16.4877 95.2193 16.4877H97.6504V18.5411H94.4404Z"/>
  <path d="M100.884 18.5411V6.90512H103.268V8.27406H103.646C103.834 7.78628 104.133 7.43224 104.542 7.21195C104.967 6.97593 105.487 6.85792 106.1 6.85792H107.493V9.05294H106.006C105.219 9.05294 104.574 9.27323 104.07 9.71381C103.567 10.1387 103.315 10.7995 103.315 11.6964V18.5411H100.884Z"/>
  <path d="M114.472 18.7535C113.591 18.7535 112.805 18.5568 112.112 18.1635C111.42 17.7701 110.877 17.2115 110.484 16.4877C110.09 15.7639 109.894 14.8985 109.894 13.8914V6.90512H112.325V13.7262C112.325 14.7333 112.576 15.4807 113.08 15.9684C113.583 16.4405 114.284 16.6765 115.18 16.6765C116.172 16.6765 116.966 16.3461 117.564 15.6852C118.178 15.0086 118.485 14.0409 118.485 12.7821V6.90512H120.916V18.5411H118.532V16.7945H118.154C117.934 17.2666 117.541 17.715 116.974 18.1399C116.408 18.549 115.574 18.7535 114.472 18.7535Z"/>
  <path d="M124.51 18.5411V6.90512H126.893V8.27406H127.271C127.491 7.86495 127.845 7.50305 128.333 7.18835C128.821 6.87365 129.482 6.7163 130.316 6.7163C131.181 6.7163 131.873 6.89725 132.393 7.25916C132.928 7.60533 133.329 8.05377 133.596 8.6045H133.974C134.242 8.06951 134.627 7.62106 135.131 7.25916C135.65 6.89725 136.382 6.7163 137.326 6.7163C138.081 6.7163 138.75 6.87365 139.332 7.18835C139.914 7.48732 140.378 7.94363 140.724 8.55729C141.071 9.15522 141.244 9.90263 141.244 10.7995V18.5411H138.813V10.9883C138.813 10.2803 138.616 9.73741 138.223 9.35977C137.845 8.9664 137.302 8.76971 136.594 8.76971C135.839 8.76971 135.233 9.0136 134.777 9.50139C134.32 9.98917 134.092 10.6894 134.092 11.602V18.5411H131.661V10.9883C131.661 10.2803 131.464 9.73741 131.071 9.35977C130.693 8.9664 130.151 8.76971 129.442 8.76971C128.687 8.76971 128.081 9.0136 127.625 9.50139C127.169 9.98917 126.941 10.6894 126.941 11.602V18.5411H124.51Z"/>
  <path d="M1.92459 21.2156L1.53065e-06 19.7059L0 1.54734L1.92459 0.0376962L1.92459 21.2156Z"/>
  <path d="M10.8971 21.2514L6.41013 19.7348L6.41013 1.51644L10.8971 0L10.8971 21.2514Z"/>
  <path d="M21.2505 21.2514L12.8231 19.8011L12.8231 1.51644L21.2505 0L21.2505 21.2514Z"/>
</svg>
