<svg width="444" height="78" viewBox="0 0 444 78" fill="none" xmlns="http://www.w3.org/2000/svg">
<path d="M23.0226 70.1875C19.1127 69.7523 15.4198 68.5967 12.0789 66.8571C14.2274 69.9096 17.0558 72.5557 20.4986 74.5453L20.4961 74.5493C23.941 76.5389 27.6479 77.6661 31.3677 77.9995C28.1971 75.9757 25.354 73.3555 23.0226 70.1875ZM55.4675 12.4457C52.0628 12.4457 48.8079 13.088 45.8172 14.2577C46.8286 15.0487 47.7902 15.9004 48.6969 16.8077C49.8011 17.913 50.8232 19.1011 51.7536 20.3605C53.3053 20.5369 54.8405 20.8284 56.3453 21.2321C57.5868 21.565 58.8076 21.9743 60.0008 22.4572C59.5194 19.2757 58.4489 16.1305 56.7469 13.1771L56.7427 13.1796C56.602 12.9363 56.4584 12.6965 56.3116 12.4592C56.0314 12.4507 55.7499 12.4457 55.4675 12.4457ZM40.9975 16.7404C39.4486 17.751 38.0116 18.9194 36.7095 20.2227L36.6419 20.2914C38.0976 20.4254 39.5515 20.6622 40.9932 21.0056C42.4372 20.6617 43.8939 20.4244 45.3518 20.2904L45.285 20.2227C43.9831 18.9194 42.5461 17.7513 40.9975 16.7404ZM33.2978 16.8077C34.2043 15.9004 35.1663 15.049 36.1775 14.2577C33.1868 13.0878 29.932 12.4457 26.5275 12.4457C26.2428 12.4457 25.9596 12.4507 25.6774 12.4597C25.5328 12.6935 25.3907 12.9301 25.2525 13.1699C23.5481 16.125 22.4761 19.2732 21.9944 22.4572C23.1878 21.974 24.4087 21.5645 25.6502 21.2316C27.1552 20.8281 28.6902 20.5367 30.2416 20.3602C31.1715 19.1008 32.1936 17.913 33.2978 16.8077ZM40.9975 11.1516C44.5248 9.31121 48.4456 8.12238 52.6 7.74532C49.3391 4.45285 45.3211 2.13285 40.9965 0.907092C36.6683 2.13435 32.6488 4.4541 29.3887 7.74483C33.5456 8.12164 37.4684 9.31047 40.9975 11.1516ZM25.4198 30.0106C25.8449 28.5849 26.3689 27.2017 26.983 25.8692L26.894 25.8924C25.1147 26.3697 23.3853 27.0308 21.7361 27.8672C21.8369 29.7171 22.1296 31.5485 22.6065 33.3307L22.6316 33.4221C23.4738 32.2285 24.4039 31.0876 25.4198 30.0106ZM36.6437 57.7079L36.7097 57.7748C38.0118 59.0781 39.4488 60.2462 40.9977 61.2571C42.5464 60.2462 43.9836 59.0781 45.2852 57.7748L45.3515 57.7079C43.8954 57.5734 42.4409 57.3366 40.9985 56.9929C39.5555 57.3366 38.1001 57.5739 36.6437 57.7079ZM33.2978 61.1898C32.1941 60.0848 31.1727 58.8975 30.2428 57.6385C28.6912 57.4626 27.1557 57.1711 25.6507 56.7676C24.4097 56.4347 23.1893 56.0252 21.9969 55.5429C22.4791 58.723 23.5501 61.8678 25.253 64.8199L25.258 64.8378C25.3944 65.0742 25.534 65.3072 25.6766 65.5378C25.9593 65.5465 26.2428 65.5515 26.5275 65.5515C29.9322 65.5515 33.1868 64.9097 36.1775 63.7398C35.1663 62.9483 34.2043 62.0969 33.2978 61.1898ZM26.9837 52.1301C26.3697 50.798 25.8461 49.4153 25.4208 47.9907C24.4047 46.9131 23.4743 45.772 22.6316 44.5784L22.6067 44.6685C22.1298 46.4505 21.8374 48.2816 21.7371 50.1313C23.3863 50.9682 25.1157 51.63 26.8945 52.1066L26.9837 52.1301ZM45.8172 63.7398C48.8079 64.9097 52.0628 65.5515 55.4675 65.5515C55.7522 65.5515 56.0354 65.5468 56.3181 65.5378C56.4627 65.3045 56.604 65.0684 56.7419 64.8291L56.7422 64.8286C58.4464 61.8735 59.5184 58.7255 59.9998 55.5419C58.8066 56.0247 57.5858 56.4342 56.3443 56.7671C54.8392 57.1706 53.304 57.4621 51.7519 57.638C50.8222 58.8975 49.8003 60.0848 48.6967 61.1895C47.7902 62.0969 46.8286 62.9483 45.8172 63.7398ZM52.6067 70.2527C49.3461 73.5449 45.3259 75.8649 40.9965 77.0922C36.6678 75.8649 32.6479 73.5444 29.3875 70.2527C33.5448 69.8764 37.4681 68.6873 40.9972 66.8459C44.5266 68.6873 48.4499 69.8761 52.6067 70.2527ZM62.2261 64.6819C66.7105 63.5023 70.7315 61.178 73.957 58.0388C75.0574 53.6738 75.0584 49.0293 73.8398 44.5572C71.435 47.9742 68.4441 50.7821 65.0855 52.9219C64.9128 56.8979 63.9791 60.8911 62.2261 64.6819ZM69.9168 66.8566C66.5759 68.5967 62.8825 69.7523 58.9722 70.1875C56.6402 73.3555 53.7966 75.9762 50.6258 78C54.3461 77.6671 58.0537 76.5392 61.4991 74.5498L61.4966 74.5458C64.9394 72.5562 67.7683 69.91 69.9168 66.8566ZM79.5548 50.1367C81.1206 46.7494 81.9947 42.9761 81.9947 38.9986C81.9947 35.0207 81.1201 31.2473 79.5543 27.8598C79.3877 31.6204 78.5409 35.3947 76.9638 38.9989C78.5409 42.6028 79.3877 46.3764 79.5548 50.1367ZM73.9555 19.957C70.73 16.8187 66.71 14.4947 62.2258 13.3159C63.9794 17.1074 64.9133 21.1004 65.086 25.0779C68.4446 27.2172 71.4353 30.0243 73.8395 33.4413C75.0584 28.968 75.0566 24.3227 73.9555 19.957ZM58.9784 7.81046C56.6474 4.64325 53.8036 2.02355 50.6313 0C54.3523 0.333889 58.0602 1.46232 61.5053 3.45343C64.9452 5.44129 67.7718 8.0872 69.9188 11.1416C66.5789 9.40229 62.8872 8.24666 58.9784 7.81046ZM17.9505 34.576C17.6179 33.3337 17.3619 32.0713 17.1834 30.7961C14.6712 32.804 12.4853 35.3049 10.7823 38.257C10.6405 38.503 10.5033 38.7506 10.3702 38.9991C10.5021 39.2457 10.6382 39.4912 10.7788 39.7353L10.7828 39.7328C12.487 42.6874 14.6729 45.19 17.1841 47.1991C17.3626 45.9252 17.6187 44.6638 17.951 43.4233C18.3549 41.9143 18.8712 40.435 19.4957 38.9999C18.8709 37.5645 18.3544 36.0852 17.9505 34.576ZM16.9089 25.0796C13.5523 27.2197 10.5622 30.0283 8.15691 33.4473C6.93683 28.9722 6.93758 24.3245 8.03974 19.9565C11.265 16.8185 15.285 14.4947 19.7689 13.3159C18.0151 17.1077 17.0814 21.1019 16.9089 25.0796ZM55.0112 52.1296L55.1005 52.1061C56.8795 51.6295 58.6089 50.967 60.258 50.1303C60.1576 48.2811 59.8649 46.45 59.388 44.668L59.3626 44.5749C58.5209 45.7665 57.5915 46.9062 56.5764 47.9822C56.1508 49.4101 55.6263 50.7953 55.0112 52.1296ZM64.8108 47.1989C64.6323 45.9247 64.3765 44.6635 64.0445 43.423C63.6403 41.9135 63.124 40.4348 62.5 38.9996C63.1245 37.564 63.6411 36.0855 64.0449 34.5765C64.377 33.3357 64.6328 32.0746 64.8113 30.8006C67.3225 32.8097 69.5087 35.3124 71.2129 38.2667L71.2171 38.2645C71.3572 38.5078 71.4929 38.7531 71.6247 38.9991C71.4931 39.2454 71.3572 39.4907 71.2166 39.7348L71.2124 39.7323C69.5079 42.6869 67.322 45.1898 64.8108 47.1989ZM23.0233 7.8097C19.1125 8.24516 15.4186 9.4008 12.0769 11.1414C14.2239 8.08745 17.0503 5.44204 20.4896 3.45443C23.936 1.46308 27.6449 0.334136 31.3667 0.000746315C28.1968 2.02354 25.3545 4.643 23.0233 7.8097ZM16.9084 52.9211C17.0802 56.8979 18.0128 60.8901 19.7639 64.6804C15.2815 63.5008 11.2625 61.177 8.03849 58.0398C6.93782 53.6743 6.93683 49.03 8.15517 44.5577C10.5594 47.9747 13.5501 50.7821 16.9084 52.9211ZM59.3638 33.4218L59.3887 33.3312C59.8659 31.5493 60.1583 29.7184 60.2591 27.869C58.6097 27.0318 56.8803 26.3697 55.101 25.8926L55.012 25.8692C55.6258 27.2015 56.1498 28.5839 56.5746 30.0091C57.5908 31.0866 58.5214 32.2278 59.3638 33.4218ZM5.03066 38.9991C3.45383 35.3947 2.6067 31.6199 2.44042 27.8593C0.874053 31.2468 0 35.0204 0 38.9986C0 42.9763 0.874052 46.7499 2.44017 50.1372C2.60695 46.3769 3.45383 42.6033 5.03066 38.9991Z" fill="url(#paint0_linear_1_72)"/>
<path d="M97 57.2641V20.8408H121.512V27.726H105.171V34.874H119.678V41.6016H105.171V50.3789H122.716V57.2641H97Z" fill="white"/>
<path d="M139.395 20.4204C144.842 20.4204 149.014 21.4015 151.913 23.3637C154.811 25.2908 156.26 28.3042 156.26 32.4038C156.26 34.9616 155.666 37.0465 154.479 38.6583C153.327 40.235 151.651 41.4789 149.451 42.3899C150.184 43.301 150.952 44.3521 151.755 45.5435C152.559 46.6998 153.344 47.9261 154.112 49.2226C154.915 50.484 155.684 51.8155 156.417 53.2171C157.15 54.5836 157.831 55.9326 158.459 57.2641H149.294C148.63 56.0727 147.949 54.8639 147.251 53.6375C146.588 52.4112 145.889 51.2198 145.156 50.0635C144.458 48.9072 143.759 47.821 143.061 46.8049C142.363 45.7537 141.664 44.8076 140.966 43.9667H136.933V57.2641H128.763V21.3664C130.543 21.016 132.377 20.7708 134.262 20.6306C136.183 20.4904 137.893 20.4204 139.395 20.4204ZM139.866 27.4107C139.273 27.4107 138.731 27.4282 138.243 27.4632C137.789 27.4983 137.352 27.5333 136.933 27.5684V37.4494H139.238C142.31 37.4494 144.51 37.064 145.837 36.2931C147.164 35.5223 147.827 34.2083 147.827 32.3512C147.827 30.5642 147.146 29.3028 145.785 28.567C144.458 27.7961 142.485 27.4107 139.866 27.4107Z" fill="white"/>
<path d="M180.479 27.148C176.673 27.148 173.914 28.2167 172.203 30.3541C170.527 32.4564 169.689 35.3472 169.689 39.0263C169.689 40.8133 169.899 42.4426 170.318 43.9142C170.737 45.3509 171.365 46.5947 172.203 47.6459C173.041 48.6971 174.089 49.5205 175.346 50.1162C176.603 50.6768 178.069 50.9571 179.745 50.9571C180.653 50.9571 181.421 50.9396 182.05 50.9046C182.713 50.8695 183.29 50.7994 183.778 50.6943V38.0277H191.949V56.0553C190.971 56.4408 189.4 56.8437 187.235 57.2642C185.07 57.7197 182.399 57.9474 179.222 57.9474C176.498 57.9474 174.019 57.527 171.784 56.686C169.585 55.8451 167.699 54.6187 166.128 53.0069C164.557 51.3951 163.335 49.4154 162.462 47.0678C161.624 44.7202 161.205 42.0397 161.205 39.0263C161.205 35.9779 161.676 33.2799 162.619 30.9322C163.562 28.5846 164.853 26.6049 166.495 24.9931C168.136 23.3462 170.056 22.1024 172.256 21.2614C174.491 20.4205 176.865 20 179.379 20C181.09 20 182.626 20.1226 183.988 20.3679C185.385 20.5781 186.572 20.8409 187.549 21.1563C188.562 21.4366 189.383 21.7344 190.011 22.0498C190.674 22.3651 191.146 22.6104 191.425 22.7856L189.068 29.3555C187.951 28.7598 186.659 28.2517 185.192 27.8313C183.761 27.3758 182.19 27.148 180.479 27.148Z" fill="white"/>
<path d="M206.412 39.0263C206.412 40.8133 206.622 42.4251 207.041 43.8617C207.495 45.2983 208.123 46.5422 208.926 47.5934C209.764 48.6095 210.777 49.3979 211.964 49.9585C213.151 50.5191 214.513 50.7995 216.049 50.7995C217.551 50.7995 218.895 50.5191 220.082 49.9585C221.304 49.3979 222.317 48.6095 223.12 47.5934C223.958 46.5422 224.586 45.2983 225.005 43.8617C225.459 42.4251 225.686 40.8133 225.686 39.0263C225.686 37.2393 225.459 35.6275 225.005 34.1909C224.586 32.7192 223.958 31.4753 223.12 30.4592C222.317 29.408 221.304 28.6021 220.082 28.0415C218.895 27.4809 217.551 27.2006 216.049 27.2006C214.513 27.2006 213.151 27.4984 211.964 28.0941C210.777 28.6547 209.764 29.4606 208.926 30.5118C208.123 31.5279 207.495 32.7718 207.041 34.2434C206.622 35.68 206.412 37.2743 206.412 39.0263ZM234.119 39.0263C234.119 42.1448 233.647 44.8953 232.705 47.278C231.797 49.6256 230.54 51.6054 228.934 53.2172C227.327 54.7939 225.407 55.9852 223.172 56.7911C220.973 57.5971 218.598 58 216.049 58C213.57 58 211.231 57.5971 209.031 56.7911C206.831 55.9852 204.911 54.7939 203.27 53.2172C201.629 51.6054 200.337 49.6256 199.394 47.278C198.451 44.8953 197.98 42.1448 197.98 39.0263C197.98 35.9078 198.469 33.1747 199.446 30.8271C200.424 28.4444 201.733 26.4472 203.374 24.8354C205.05 23.2236 206.971 22.0148 209.136 21.2089C211.336 20.4029 213.64 20 216.049 20C218.528 20 220.868 20.4029 223.068 21.2089C225.267 22.0148 227.188 23.2236 228.829 24.8354C230.47 26.4472 231.762 28.4444 232.705 30.8271C233.647 33.1747 234.119 35.9078 234.119 39.0263Z" fill="white"/>
<path d="M271.045 39.0263C271.045 42.1798 270.556 44.9304 269.579 47.278C268.601 49.5906 267.222 51.5178 265.441 53.0595C263.66 54.5662 261.53 55.7049 259.051 56.4758C256.572 57.2116 253.849 57.5795 250.881 57.5795C249.414 57.5795 247.791 57.5095 246.01 57.3693C244.264 57.2642 242.675 57.0364 241.244 56.686V21.3665C242.675 21.0161 244.264 20.7884 246.01 20.6833C247.791 20.5431 249.414 20.473 250.881 20.473C253.849 20.473 256.572 20.8585 259.051 21.6293C261.53 22.3651 263.66 23.5039 265.441 25.0456C267.222 26.5523 268.601 28.4795 269.579 30.8271C270.556 33.1397 271.045 35.8728 271.045 39.0263ZM251.3 53.112C256.118 53.112 259.715 51.8857 262.089 49.4329C264.463 46.9451 265.651 43.4763 265.651 39.0263C265.651 34.5763 264.463 31.1249 262.089 28.6722C259.715 26.1844 256.118 24.9405 251.3 24.9405C249.868 24.9405 248.751 24.958 247.948 24.9931C247.18 25.0281 246.638 25.0632 246.324 25.0982V52.9544C246.638 52.9894 247.18 53.0244 247.948 53.0595C248.751 53.0945 249.868 53.112 251.3 53.112Z" fill="white"/>
<path d="M278.582 57.2641V20.8408H300.736V25.2032H283.662V36.0303H298.851V40.2876H283.662V52.9017H302.046V57.2641H278.582Z" fill="white"/>
<path d="M330.291 57.2641C329.767 56.2129 329.139 55.0566 328.406 53.7952C327.672 52.4988 326.869 51.1673 325.996 49.8007C325.123 48.3992 324.216 47.0151 323.273 45.6486C322.33 44.247 321.422 42.9331 320.549 41.7067C319.676 42.9331 318.769 44.247 317.826 45.6486C316.883 47.0151 315.975 48.3992 315.102 49.8007C314.264 51.1673 313.461 52.4988 312.693 53.7952C311.96 55.0566 311.331 56.2129 310.807 57.2641H305.203C306.775 54.1806 308.59 51.0446 310.65 47.8561C312.745 44.6675 314.963 41.3913 317.302 38.0276L305.675 20.8408H311.541L320.497 34.401L329.348 20.8408H335.162L323.744 37.8173C326.119 41.2161 328.353 44.5273 330.448 47.7509C332.543 50.9745 334.394 54.1456 336 57.2641H330.291Z" fill="white"/>
<path d="M348.536 52.456C348.8 52.48 349.148 52.504 349.58 52.528C350.012 52.528 350.6 52.528 351.344 52.528C354.392 52.528 356.66 51.76 358.148 50.224C359.66 48.664 360.416 46.492 360.416 43.708C360.416 40.876 359.684 38.704 358.22 37.192C356.756 35.68 354.488 34.924 351.416 34.924C350.072 34.924 349.112 34.96 348.536 35.032V52.456ZM365.168 43.708C365.168 45.868 364.832 47.752 364.16 49.36C363.488 50.944 362.528 52.276 361.28 53.356C360.056 54.412 358.568 55.204 356.816 55.732C355.088 56.236 353.168 56.488 351.056 56.488C350.048 56.488 348.908 56.44 347.636 56.344C346.364 56.272 345.152 56.104 344 55.84V31.612C345.152 31.348 346.376 31.18 347.672 31.108C348.968 31.036 350.12 31 351.128 31C353.216 31 355.124 31.252 356.852 31.756C358.58 32.236 360.056 33.004 361.28 34.06C362.528 35.092 363.488 36.412 364.16 38.02C364.832 39.604 365.168 41.5 365.168 43.708Z" fill="white"/>
<path d="M386.933 46.768C386.933 48.256 386.717 49.612 386.285 50.836C385.853 52.06 385.241 53.104 384.449 53.968C383.657 54.832 382.697 55.504 381.569 55.984C380.465 56.464 379.241 56.704 377.897 56.704C376.553 56.704 375.329 56.464 374.225 55.984C373.121 55.504 372.173 54.832 371.381 53.968C370.589 53.104 369.965 52.06 369.509 50.836C369.077 49.612 368.861 48.256 368.861 46.768C368.861 45.28 369.077 43.936 369.509 42.736C369.965 41.512 370.589 40.468 371.381 39.604C372.197 38.74 373.157 38.08 374.261 37.624C375.365 37.144 376.577 36.904 377.897 36.904C379.217 36.904 380.429 37.144 381.533 37.624C382.661 38.08 383.621 38.74 384.413 39.604C385.205 40.468 385.817 41.512 386.249 42.736C386.705 43.936 386.933 45.28 386.933 46.768ZM382.469 46.768C382.469 44.896 382.061 43.42 381.245 42.34C380.453 41.236 379.337 40.684 377.897 40.684C376.457 40.684 375.329 41.236 374.513 42.34C373.721 43.42 373.325 44.896 373.325 46.768C373.325 48.664 373.721 50.164 374.513 51.268C375.329 52.372 376.457 52.924 377.897 52.924C379.337 52.924 380.453 52.372 381.245 51.268C382.061 50.164 382.469 48.664 382.469 46.768Z" fill="white"/>
<path d="M390.377 46.804C390.377 45.412 390.593 44.116 391.025 42.916C391.457 41.692 392.069 40.636 392.861 39.748C393.677 38.86 394.661 38.164 395.813 37.66C396.965 37.156 398.261 36.904 399.701 36.904C401.477 36.904 403.157 37.228 404.741 37.876L403.805 41.44C403.301 41.224 402.725 41.044 402.077 40.9C401.453 40.756 400.781 40.684 400.061 40.684C398.357 40.684 397.061 41.224 396.173 42.304C395.285 43.36 394.841 44.86 394.841 46.804C394.841 48.676 395.261 50.164 396.101 51.268C396.941 52.348 398.357 52.888 400.349 52.888C401.093 52.888 401.825 52.816 402.545 52.672C403.265 52.528 403.889 52.348 404.417 52.132L405.029 55.732C404.549 55.972 403.817 56.188 402.833 56.38C401.873 56.572 400.877 56.668 399.845 56.668C398.237 56.668 396.833 56.428 395.633 55.948C394.457 55.444 393.473 54.76 392.681 53.896C391.913 53.008 391.337 51.964 390.953 50.764C390.569 49.54 390.377 48.22 390.377 46.804Z" fill="white"/>
<path d="M413.117 53.068C414.269 53.068 415.109 52.936 415.637 52.672C416.165 52.384 416.429 51.904 416.429 51.232C416.429 50.608 416.141 50.092 415.565 49.684C415.013 49.276 414.089 48.832 412.793 48.352C412.001 48.064 411.269 47.764 410.597 47.452C409.949 47.116 409.385 46.732 408.905 46.3C408.425 45.868 408.041 45.352 407.753 44.752C407.489 44.128 407.357 43.372 407.357 42.484C407.357 40.756 407.993 39.4 409.265 38.416C410.537 37.408 412.265 36.904 414.449 36.904C415.553 36.904 416.609 37.012 417.617 37.228C418.625 37.42 419.381 37.612 419.885 37.804L419.093 41.332C418.613 41.116 418.001 40.924 417.257 40.756C416.513 40.564 415.649 40.468 414.665 40.468C413.777 40.468 413.057 40.624 412.505 40.936C411.953 41.224 411.677 41.68 411.677 42.304C411.677 42.616 411.725 42.892 411.821 43.132C411.941 43.372 412.133 43.6 412.397 43.816C412.661 44.008 413.009 44.212 413.441 44.428C413.873 44.62 414.401 44.824 415.025 45.04C416.057 45.424 416.933 45.808 417.653 46.192C418.373 46.552 418.961 46.972 419.417 47.452C419.897 47.908 420.245 48.436 420.461 49.036C420.677 49.636 420.785 50.356 420.785 51.196C420.785 52.996 420.113 54.364 418.769 55.3C417.449 56.212 415.553 56.668 413.081 56.668C411.425 56.668 410.093 56.524 409.085 56.236C408.077 55.972 407.369 55.756 406.961 55.588L407.717 51.952C408.365 52.216 409.133 52.468 410.021 52.708C410.933 52.948 411.965 53.068 413.117 53.068Z" fill="white"/>
<defs>
<linearGradient id="paint0_linear_1_72" x1="0" y1="0" x2="0" y2="78" gradientUnits="userSpaceOnUse">
<stop stop-color="#FF8C00"/>
<stop offset="0.0001" stop-color="#FF8C00"/>
<stop offset="1" stop-color="#FF0080"/>
</linearGradient>
</defs>
</svg>
