<svg width="75" height="24" viewBox="0 0 75 24" fill="none" xmlns="http://www.w3.org/2000/svg">
<path d="M4.60383 20.6797L3 19.4216L3 4.28945L4.60382 3.03141L4.60383 20.6797Z" fill="#221D67"/>
<path d="M12.0809 20.7095L8.34178 19.4457L8.34177 4.2637L12.0809 3L12.0809 20.7095Z" fill="#221D67"/>
<path d="M20.7088 20.7095L13.6859 19.5009L13.6859 4.2637L20.7088 3L20.7088 20.7095Z" fill="#221D67"/>
<path d="M30.828 19V17.092H32.52V8.308H30.828V6.4H35.958C37.638 6.4 38.922 6.826 39.81 7.678C40.698 8.53 41.142 9.808 41.142 11.512V13.888C41.142 15.592 40.698 16.87 39.81 17.722C38.922 18.574 37.638 19 35.958 19H30.828ZM34.68 17.038H35.976C36.996 17.038 37.752 16.774 38.244 16.246C38.736 15.718 38.982 14.956 38.982 13.96V11.458C38.982 10.438 38.736 9.67 38.244 9.154C37.752 8.626 36.996 8.362 35.976 8.362H34.68V17.038ZM47.8567 19.252C46.9687 19.252 46.1707 19.072 45.4627 18.712C44.7667 18.34 44.2147 17.818 43.8067 17.146C43.4107 16.462 43.2127 15.646 43.2127 14.698V14.41C43.2127 13.462 43.4107 12.646 43.8067 11.962C44.2147 11.278 44.7667 10.756 45.4627 10.396C46.1707 10.036 46.9687 9.856 47.8567 9.856C48.7447 9.856 49.5367 10.036 50.2327 10.396C50.9287 10.756 51.4747 11.278 51.8707 11.962C52.2787 12.646 52.4827 13.462 52.4827 14.41V14.698C52.4827 15.646 52.2787 16.462 51.8707 17.146C51.4747 17.818 50.9287 18.34 50.2327 18.712C49.5367 19.072 48.7447 19.252 47.8567 19.252ZM47.8567 17.416C48.6127 17.416 49.2307 17.176 49.7107 16.696C50.1907 16.204 50.4307 15.52 50.4307 14.644V14.464C50.4307 13.588 50.1907 12.91 49.7107 12.43C49.2307 11.938 48.6127 11.692 47.8567 11.692C47.1007 11.692 46.4827 11.938 46.0027 12.43C45.5227 12.91 45.2827 13.588 45.2827 14.464V14.644C45.2827 15.52 45.5227 16.204 46.0027 16.696C46.4827 17.176 47.1007 17.416 47.8567 17.416ZM59.2018 19.252C58.3378 19.252 57.5578 19.072 56.8618 18.712C56.1658 18.352 55.6138 17.83 55.2058 17.146C54.8098 16.462 54.6118 15.64 54.6118 14.68V14.428C54.6118 13.468 54.8098 12.646 55.2058 11.962C55.6138 11.278 56.1658 10.756 56.8618 10.396C57.5578 10.036 58.3378 9.856 59.2018 9.856C60.0538 9.856 60.7798 10.006 61.3798 10.306C61.9918 10.606 62.4838 11.02 62.8558 11.548C63.2278 12.064 63.4678 12.646 63.5758 13.294L61.5778 13.708C61.5298 13.336 61.4158 13 61.2358 12.7C61.0558 12.388 60.7978 12.142 60.4618 11.962C60.1378 11.782 59.7358 11.692 59.2558 11.692C58.7638 11.692 58.3198 11.8 57.9238 12.016C57.5398 12.22 57.2338 12.532 57.0058 12.952C56.7898 13.372 56.6818 13.876 56.6818 14.464V14.644C56.6818 15.232 56.7898 15.736 57.0058 16.156C57.2338 16.564 57.5398 16.876 57.9238 17.092C58.3198 17.308 58.7638 17.416 59.2558 17.416C59.9878 17.416 60.5398 17.23 60.9118 16.858C61.2958 16.474 61.5358 15.982 61.6318 15.382L63.6298 15.85C63.4858 16.474 63.2278 17.044 62.8558 17.56C62.4838 18.076 61.9918 18.49 61.3798 18.802C60.7798 19.102 60.0538 19.252 59.2018 19.252ZM69.6754 19.252C68.5234 19.252 67.5754 19 66.8314 18.496C66.0874 17.992 65.6374 17.254 65.4814 16.282L67.3894 15.796C67.4734 16.252 67.6234 16.612 67.8394 16.876C68.0554 17.14 68.3194 17.326 68.6314 17.434C68.9554 17.542 69.3034 17.596 69.6754 17.596C70.2394 17.596 70.6594 17.494 70.9354 17.29C71.2234 17.086 71.3674 16.828 71.3674 16.516C71.3674 16.192 71.2294 15.952 70.9534 15.796C70.6894 15.64 70.2814 15.508 69.7294 15.4L69.1714 15.31C68.5594 15.19 68.0014 15.028 67.4974 14.824C66.9934 14.608 66.5854 14.32 66.2734 13.96C65.9734 13.588 65.8234 13.12 65.8234 12.556C65.8234 11.692 66.1414 11.026 66.7774 10.558C67.4254 10.09 68.2714 9.856 69.3154 9.856C70.3114 9.856 71.1334 10.078 71.7814 10.522C72.4294 10.966 72.8494 11.56 73.0414 12.304L71.1334 12.88C71.0374 12.376 70.8274 12.022 70.5034 11.818C70.1794 11.602 69.7834 11.494 69.3154 11.494C68.8354 11.494 68.4634 11.578 68.1994 11.746C67.9474 11.914 67.8214 12.154 67.8214 12.466C67.8214 12.778 67.9534 13.012 68.2174 13.168C68.4814 13.324 68.8354 13.438 69.2794 13.51L69.8374 13.618C70.4974 13.738 71.0914 13.894 71.6194 14.086C72.1594 14.278 72.5854 14.554 72.8974 14.914C73.2094 15.274 73.3654 15.76 73.3654 16.372C73.3654 17.296 73.0294 18.01 72.3574 18.514C71.6974 19.006 70.8034 19.252 69.6754 19.252Z" fill="#221D67"/>
</svg>
